<svg width="96" height="86" viewBox="0 0 96 86" fill="none" xmlns="http://www.w3.org/2000/svg">
<line x1="54.6381" y1="39.9006" x2="84.6548" y2="9.88394" stroke="#64C29E"/>
<line x1="10.6381" y1="84.9006" x2="40.6548" y2="54.8839" stroke="#64C29E"/>
<line x1="10.345" y1="9.88448" x2="40.3617" y2="39.9011" stroke="#64C29E"/>
<line x1="52.8536" y1="52.3923" x2="82.8702" y2="82.409" stroke="#64C29E"/>
<path d="M47.5 21.7458C45.4962 21.7458 43.6474 21.3028 41.9535 20.4167C40.2803 19.511 38.9479 18.2606 37.9563 16.6657C36.9854 15.0511 36.5 13.2395 36.5 11.2311C36.5 9.22264 36.9854 7.42096 37.9563 5.82602C38.9479 4.23108 40.2803 2.99058 41.9535 2.1045C43.6474 1.19873 45.4962 0.74585 47.5 0.74585C49.5244 0.74585 51.3732 1.19873 53.0465 2.1045C54.7404 2.99058 56.0728 4.23108 57.0437 5.82602C58.0146 7.42096 58.5 9.22264 58.5 11.2311C58.5 13.2395 58.0146 15.0511 57.0437 16.6657C56.0728 18.2606 54.7404 19.511 53.0465 20.4167C51.3732 21.3028 49.5244 21.7458 47.5 21.7458ZM47.5 18.8218C48.9254 18.8218 50.1958 18.5166 51.3113 17.9062C52.4268 17.2761 53.2944 16.39 53.9141 15.248C54.5545 14.0862 54.8746 12.7473 54.8746 11.2311C54.8746 9.71491 54.5545 8.38579 53.9141 7.24374C53.2944 6.10169 52.4268 5.22546 51.3113 4.61505C50.1958 4.00464 48.9254 3.69944 47.5 3.69944C46.0746 3.69944 44.8042 4.00464 43.6887 4.61505C42.5732 5.22546 41.6953 6.10169 41.0549 7.24374C40.4352 8.38579 40.1254 9.71491 40.1254 11.2311C40.1254 12.7473 40.4352 14.0862 41.0549 15.248C41.6953 16.39 42.5732 17.2761 43.6887 17.9062C44.8042 18.5166 46.0746 18.8218 47.5 18.8218Z" fill="#64C29E"/>
<path d="M84.3557 37.7458C86.5906 37.7458 88.5436 38.1996 90.2148 39.107C91.906 39.9933 93.2047 41.2806 94.1107 42.9689C95.0369 44.636 95.5 46.5881 95.5 48.825C95.5 51.0619 95.0369 53.0034 94.1107 54.6494C93.2047 56.2955 91.906 57.5617 90.2148 58.448C88.5436 59.3132 86.5906 59.7458 84.3557 59.7458H77.5V37.7458H84.3557ZM84.3557 56.802C86.8121 56.802 88.6946 56.1056 90.0034 54.7128C91.3121 53.32 91.9664 51.3574 91.9664 48.825C91.9664 46.2715 91.3121 44.2773 90.0034 42.8423C88.6946 41.4072 86.8121 40.6897 84.3557 40.6897H80.943V56.802H84.3557Z" fill="#64C29E"/>
<path d="M14.373 54.2775H5.59682L4.08889 57.7458H0.5L8.00952 40.7458L10 36.2458L11.9905 40.7458L19.5 57.7458H15.881L14.373 54.2775ZM13.4079 52.0059L10 44.1165L6.5619 52.0059H13.4079Z" fill="#64C29E"/>
<path d="M39.5 77.5207V76.8319H40.9235V81.6598H40.1365V77.5207H39.5Z" fill="#64C29E"/>
<path d="M41.9953 79.1829C41.9953 78.4191 42.1277 77.8231 42.3923 77.3949C42.6615 76.9622 43.1223 76.7458 43.7747 76.7458C44.4272 76.7458 44.8857 76.9622 45.1504 77.3949C45.4196 77.8231 45.5541 78.4191 45.5541 79.1829C45.5541 79.9556 45.4196 80.5604 45.1504 80.9975C44.8857 81.4302 44.4272 81.6465 43.7747 81.6465C43.1223 81.6465 42.6615 81.4302 42.3923 80.9975C42.1277 80.5604 41.9953 79.9556 41.9953 79.1829ZM44.7876 79.1829C44.7876 78.8253 44.7625 78.5229 44.7124 78.2757C44.6667 78.0284 44.5709 77.8275 44.4249 77.673C44.2789 77.5141 44.0622 77.4346 43.7747 77.4346C43.4873 77.4346 43.2706 77.5141 43.1246 77.673C42.9786 77.8275 42.8805 78.0284 42.8303 78.2757C42.7847 78.5229 42.7619 78.8253 42.7619 79.1829C42.7619 79.5538 42.7847 79.8651 42.8303 80.1167C42.8759 80.3684 42.9717 80.5715 43.1177 80.726C43.2683 80.8805 43.4873 80.9578 43.7747 80.9578C44.0622 80.9578 44.2789 80.8805 44.4249 80.726C44.5755 80.5715 44.6736 80.3684 44.7192 80.1167C44.7648 79.8651 44.7876 79.5538 44.7876 79.1829Z" fill="#64C29E"/>
<path d="M46.3797 79.1829C46.3797 78.4191 46.512 77.8231 46.7766 77.3949C47.0458 76.9622 47.5066 76.7458 48.1591 76.7458C48.8115 76.7458 49.2701 76.9622 49.5347 77.3949C49.8039 77.8231 49.9385 78.4191 49.9385 79.1829C49.9385 79.9556 49.8039 80.5604 49.5347 80.9975C49.2701 81.4302 48.8115 81.6465 48.1591 81.6465C47.5066 81.6465 47.0458 81.4302 46.7766 80.9975C46.512 80.5604 46.3797 79.9556 46.3797 79.1829ZM49.172 79.1829C49.172 78.8253 49.1469 78.5229 49.0967 78.2757C49.0511 78.0284 48.9553 77.8275 48.8093 77.673C48.6633 77.5141 48.4465 77.4346 48.1591 77.4346C47.8717 77.4346 47.6549 77.5141 47.5089 77.673C47.3629 77.8275 47.2648 78.0284 47.2146 78.2757C47.169 78.5229 47.1462 78.8253 47.1462 79.1829C47.1462 79.5538 47.169 79.8651 47.2146 80.1167C47.2603 80.3684 47.3561 80.5715 47.5021 80.726C47.6527 80.8805 47.8717 80.9578 48.1591 80.9578C48.4465 80.9578 48.6633 80.8805 48.8093 80.726C48.9598 80.5715 49.0579 80.3684 49.1036 80.1167C49.1492 79.8651 49.172 79.5538 49.172 79.1829Z" fill="#64C29E"/>
<path d="M50.6409 77.9975C50.6409 77.6752 50.7367 77.4236 50.9283 77.2425C51.1245 77.0571 51.3754 76.9644 51.6811 76.9644C51.9868 76.9644 52.2355 77.0571 52.4271 77.2425C52.6233 77.4236 52.7214 77.6752 52.7214 77.9975C52.7214 78.3198 52.6233 78.5737 52.4271 78.7591C52.2355 78.9445 51.9868 79.0372 51.6811 79.0372C51.3754 79.0372 51.1245 78.9445 50.9283 78.7591C50.7367 78.5737 50.6409 78.3198 50.6409 77.9975ZM54.8156 77.0505L52.0849 81.6598H51.3184L54.0491 77.0505H54.8156ZM51.6811 77.4213C51.3937 77.4213 51.25 77.6134 51.25 77.9975C51.25 78.386 51.3937 78.5803 51.6811 78.5803C51.818 78.5803 51.9229 78.5339 51.9959 78.4412C52.0735 78.3441 52.1123 78.1962 52.1123 77.9975C52.1123 77.6134 51.9686 77.4213 51.6811 77.4213ZM53.4263 80.7061C53.4263 80.3838 53.5221 80.1322 53.7138 79.9511C53.9099 79.7657 54.1609 79.673 54.4666 79.673C54.7677 79.673 55.0141 79.7657 55.2057 79.9511C55.4019 80.1322 55.5 80.3838 55.5 80.7061C55.5 81.0284 55.4019 81.2823 55.2057 81.4677C55.0141 81.6531 54.7677 81.7458 54.4666 81.7458C54.1609 81.7458 53.9099 81.6531 53.7138 81.4677C53.5221 81.2823 53.4263 81.0284 53.4263 80.7061ZM54.4597 80.13C54.1723 80.13 54.0286 80.322 54.0286 80.7061C54.0286 81.0902 54.1723 81.2823 54.4597 81.2823C54.7472 81.2823 54.8909 81.0902 54.8909 80.7061C54.8909 80.322 54.7472 80.13 54.4597 80.13Z" fill="#64C29E"/>
<path d="M50.4926 51.53L49.4606 50.498C49.0606 50.898 48.6246 51.198 48.1526 51.398C47.6806 51.59 47.1526 51.686 46.5686 51.686C45.9766 51.686 45.4526 51.582 44.9966 51.374C44.5406 51.166 44.1886 50.87 43.9406 50.486C43.6926 50.094 43.5686 49.642 43.5686 49.13C43.5686 48.554 43.7326 48.042 44.0606 47.594C44.3886 47.138 44.8766 46.778 45.5246 46.514C45.2926 46.234 45.1286 45.974 45.0326 45.734C44.9366 45.486 44.8886 45.214 44.8886 44.918C44.8886 44.55 44.9806 44.222 45.1646 43.934C45.3566 43.646 45.6286 43.418 45.9806 43.25C46.3326 43.082 46.7406 42.998 47.2046 42.998C47.6766 42.998 48.0766 43.09 48.4046 43.274C48.7406 43.45 48.9886 43.694 49.1486 44.006C49.3166 44.318 49.3846 44.666 49.3526 45.05H47.9846C47.9926 44.754 47.9206 44.526 47.7686 44.366C47.6166 44.198 47.4086 44.114 47.1446 44.114C46.8806 44.114 46.6646 44.194 46.4966 44.354C46.3366 44.506 46.2566 44.694 46.2566 44.918C46.2566 45.134 46.3166 45.35 46.4366 45.566C46.5646 45.774 46.7846 46.046 47.0966 46.382L49.3046 48.578L50.1566 47.174H51.6326L50.5526 49.022L50.2526 49.514L52.2806 51.53H50.4926ZM46.5686 50.522C47.3206 50.522 47.9846 50.214 48.5606 49.598L46.3526 47.378C45.4086 47.754 44.9366 48.322 44.9366 49.082C44.9366 49.49 45.0886 49.834 45.3926 50.114C45.6966 50.386 46.0886 50.522 46.5686 50.522Z" fill="#64C29E"/>
</svg>
