<svg width="95" height="85" viewBox="0 0 95 85" fill="none" xmlns="http://www.w3.org/2000/svg">
<line x1="54.1381" y1="39.1547" x2="84.1548" y2="9.13809" stroke="#64C29E"/>
<line x1="10.1381" y1="84.1547" x2="40.1548" y2="54.1381" stroke="#64C29E"/>
<line x1="9.84501" y1="9.13863" x2="39.8617" y2="39.1553" stroke="#64C29E"/>
<line x1="52.3536" y1="51.6464" x2="82.3702" y2="81.6631" stroke="#64C29E"/>
<path d="M47 21C44.9962 21 43.1474 20.557 41.4535 19.6709C39.7803 18.7651 38.4479 17.5148 37.4563 15.9198C36.4854 14.3052 36 12.4937 36 10.4852C36 8.47679 36.4854 6.67511 37.4563 5.08017C38.4479 3.48523 39.7803 2.24473 41.4535 1.35865C43.1474 0.452883 44.9962 0 47 0C49.0244 0 50.8732 0.452883 52.5465 1.35865C54.2404 2.24473 55.5728 3.48523 56.5437 5.08017C57.5146 6.67511 58 8.47679 58 10.4852C58 12.4937 57.5146 14.3052 56.5437 15.9198C55.5728 17.5148 54.2404 18.7651 52.5465 19.6709C50.8732 20.557 49.0244 21 47 21ZM47 18.0759C48.4254 18.0759 49.6958 17.7707 50.8113 17.1603C51.9268 16.5302 52.7944 15.6442 53.4141 14.5021C54.0545 13.3404 54.3746 12.0014 54.3746 10.4852C54.3746 8.96906 54.0545 7.63994 53.4141 6.49789C52.7944 5.35584 51.9268 4.47961 50.8113 3.8692C49.6958 3.25879 48.4254 2.95359 47 2.95359C45.5746 2.95359 44.3042 3.25879 43.1887 3.8692C42.0732 4.47961 41.1953 5.35584 40.5549 6.49789C39.9352 7.63994 39.6254 8.96906 39.6254 10.4852C39.6254 12.0014 39.9352 13.3404 40.5549 14.5021C41.1953 15.6442 42.0732 16.5302 43.1887 17.1603C44.3042 17.7707 45.5746 18.0759 47 18.0759Z" fill="#64C29E"/>
<path d="M83.8557 37C86.0906 37 88.0436 37.4537 89.7148 38.3612C91.406 39.2475 92.7047 40.5348 93.6107 42.223C94.5369 43.8902 95 45.8422 95 48.0791C95 50.3161 94.5369 52.2576 93.6107 53.9036C92.7047 55.5496 91.406 56.8158 89.7148 57.7022C88.0436 58.5674 86.0906 59 83.8557 59H77V37H83.8557ZM83.8557 56.0561C86.3121 56.0561 88.1946 55.3597 89.5034 53.9669C90.8121 52.5741 91.4664 50.6115 91.4664 48.0791C91.4664 45.5257 90.8121 43.5314 89.5034 42.0964C88.1946 40.6614 86.3121 39.9439 83.8557 39.9439H80.443V56.0561H83.8557Z" fill="#64C29E"/>
<path d="M13.873 53.5316H5.09682L3.58889 57H0L7.50952 40L9.5 35.5L11.4905 40L19 57H15.381L13.873 53.5316ZM12.9079 51.2601L9.5 43.3707L6.0619 51.2601H12.9079Z" fill="#64C29E"/>
<path d="M39 76.7748V76.0861H40.4235V80.9139H39.6365V76.7748H39Z" fill="#64C29E"/>
<path d="M41.4953 78.4371C41.4953 77.6733 41.6277 77.0773 41.8923 76.649C42.1615 76.2163 42.6223 76 43.2747 76C43.9272 76 44.3857 76.2163 44.6504 76.649C44.9196 77.0773 45.0541 77.6733 45.0541 78.4371C45.0541 79.2097 44.9196 79.8146 44.6504 80.2517C44.3857 80.6843 43.9272 80.9007 43.2747 80.9007C42.6223 80.9007 42.1615 80.6843 41.8923 80.2517C41.6277 79.8146 41.4953 79.2097 41.4953 78.4371ZM44.2876 78.4371C44.2876 78.0795 44.2625 77.777 44.2124 77.5298C44.1667 77.2826 44.0709 77.0817 43.9249 76.9272C43.7789 76.7682 43.5622 76.6887 43.2747 76.6887C42.9873 76.6887 42.7706 76.7682 42.6246 76.9272C42.4786 77.0817 42.3805 77.2826 42.3303 77.5298C42.2847 77.777 42.2619 78.0795 42.2619 78.4371C42.2619 78.8079 42.2847 79.1192 42.3303 79.3709C42.3759 79.6225 42.4717 79.8256 42.6177 79.9801C42.7683 80.1347 42.9873 80.2119 43.2747 80.2119C43.5622 80.2119 43.7789 80.1347 43.9249 79.9801C44.0755 79.8256 44.1736 79.6225 44.2192 79.3709C44.2648 79.1192 44.2876 78.8079 44.2876 78.4371Z" fill="#64C29E"/>
<path d="M45.8797 78.4371C45.8797 77.6733 46.012 77.0773 46.2766 76.649C46.5458 76.2163 47.0066 76 47.6591 76C48.3115 76 48.7701 76.2163 49.0347 76.649C49.3039 77.0773 49.4385 77.6733 49.4385 78.4371C49.4385 79.2097 49.3039 79.8146 49.0347 80.2517C48.7701 80.6843 48.3115 80.9007 47.6591 80.9007C47.0066 80.9007 46.5458 80.6843 46.2766 80.2517C46.012 79.8146 45.8797 79.2097 45.8797 78.4371ZM48.672 78.4371C48.672 78.0795 48.6469 77.777 48.5967 77.5298C48.5511 77.2826 48.4553 77.0817 48.3093 76.9272C48.1633 76.7682 47.9465 76.6887 47.6591 76.6887C47.3717 76.6887 47.1549 76.7682 47.0089 76.9272C46.8629 77.0817 46.7648 77.2826 46.7146 77.5298C46.669 77.777 46.6462 78.0795 46.6462 78.4371C46.6462 78.8079 46.669 79.1192 46.7146 79.3709C46.7603 79.6225 46.8561 79.8256 47.0021 79.9801C47.1527 80.1347 47.3717 80.2119 47.6591 80.2119C47.9465 80.2119 48.1633 80.1347 48.3093 79.9801C48.4598 79.8256 48.5579 79.6225 48.6036 79.3709C48.6492 79.1192 48.672 78.8079 48.672 78.4371Z" fill="#64C29E"/>
<path d="M50.1409 77.2517C50.1409 76.9294 50.2367 76.6777 50.4283 76.4967C50.6245 76.3113 50.8754 76.2185 51.1811 76.2185C51.4868 76.2185 51.7355 76.3113 51.9271 76.4967C52.1233 76.6777 52.2214 76.9294 52.2214 77.2517C52.2214 77.574 52.1233 77.8278 51.9271 78.0132C51.7355 78.1987 51.4868 78.2914 51.1811 78.2914C50.8754 78.2914 50.6245 78.1987 50.4283 78.0132C50.2367 77.8278 50.1409 77.574 50.1409 77.2517ZM54.3156 76.3046L51.5849 80.9139H50.8184L53.5491 76.3046H54.3156ZM51.1811 76.6755C50.8937 76.6755 50.75 76.8675 50.75 77.2517C50.75 77.6402 50.8937 77.8344 51.1811 77.8344C51.318 77.8344 51.4229 77.7881 51.4959 77.6954C51.5735 77.5982 51.6123 77.4503 51.6123 77.2517C51.6123 76.8675 51.4686 76.6755 51.1811 76.6755ZM52.9263 79.9603C52.9263 79.638 53.0221 79.3863 53.2138 79.2053C53.4099 79.0199 53.6609 78.9272 53.9666 78.9272C54.2677 78.9272 54.5141 79.0199 54.7057 79.2053C54.9019 79.3863 55 79.638 55 79.9603C55 80.2826 54.9019 80.5364 54.7057 80.7219C54.5141 80.9073 54.2677 81 53.9666 81C53.6609 81 53.4099 80.9073 53.2138 80.7219C53.0221 80.5364 52.9263 80.2826 52.9263 79.9603ZM53.9597 79.3841C53.6723 79.3841 53.5286 79.5762 53.5286 79.9603C53.5286 80.3444 53.6723 80.5364 53.9597 80.5364C54.2472 80.5364 54.3909 80.3444 54.3909 79.9603C54.3909 79.5762 54.2472 79.3841 53.9597 79.3841Z" fill="#64C29E"/>
<path d="M49.9926 50.7842L48.9606 49.7522C48.5606 50.1522 48.1246 50.4522 47.6526 50.6522C47.1806 50.8442 46.6526 50.9402 46.0686 50.9402C45.4766 50.9402 44.9526 50.8362 44.4966 50.6282C44.0406 50.4202 43.6886 50.1242 43.4406 49.7402C43.1926 49.3482 43.0686 48.8962 43.0686 48.3842C43.0686 47.8082 43.2326 47.2962 43.5606 46.8482C43.8886 46.3922 44.3766 46.0322 45.0246 45.7682C44.7926 45.4882 44.6286 45.2282 44.5326 44.9882C44.4366 44.7402 44.3886 44.4682 44.3886 44.1722C44.3886 43.8042 44.4806 43.4762 44.6646 43.1882C44.8566 42.9002 45.1286 42.6722 45.4806 42.5042C45.8326 42.3362 46.2406 42.2522 46.7046 42.2522C47.1766 42.2522 47.5766 42.3442 47.9046 42.5282C48.2406 42.7042 48.4886 42.9482 48.6486 43.2602C48.8166 43.5722 48.8846 43.9202 48.8526 44.3042H47.4846C47.4926 44.0082 47.4206 43.7802 47.2686 43.6202C47.1166 43.4522 46.9086 43.3682 46.6446 43.3682C46.3806 43.3682 46.1646 43.4482 45.9966 43.6082C45.8366 43.7602 45.7566 43.9482 45.7566 44.1722C45.7566 44.3882 45.8166 44.6042 45.9366 44.8202C46.0646 45.0282 46.2846 45.3002 46.5966 45.6362L48.8046 47.8322L49.6566 46.4282H51.1326L50.0526 48.2762L49.7526 48.7682L51.7806 50.7842H49.9926ZM46.0686 49.7762C46.8206 49.7762 47.4846 49.4682 48.0606 48.8522L45.8526 46.6322C44.9086 47.0082 44.4366 47.5762 44.4366 48.3362C44.4366 48.7442 44.5886 49.0882 44.8926 49.3682C45.1966 49.6402 45.5886 49.7762 46.0686 49.7762Z" fill="#64C29E"/>
</svg>
