<svg width="30" height="24" viewBox="0 0 30 24" fill="none" xmlns="http://www.w3.org/2000/svg">
<path d="M26.2625 5.8125C26.2625 6.075 26.2625 6.3375 26.2625 6.5625C26.2625 14.325 20.3375 23.2875 9.5375 23.2875C6.2 23.2875 3.125 22.3125 0.5 20.6625C0.95 20.7 1.4375 20.7375 1.8875 20.7375C4.625 20.7375 7.175 19.8 9.2 18.225C6.6125 18.1875 4.4375 16.4625 3.725 14.1375C4.1 14.2125 4.4375 14.25 4.85 14.25C5.375 14.25 5.9 14.175 6.3875 14.025C3.6875 13.5 1.6625 11.1375 1.6625 8.2875C1.6625 8.25 1.6625 8.25 1.6625 8.2125C2.45 8.6625 3.35 8.925 4.325 8.9625C2.75 7.9125 1.7 6.1125 1.7 4.05C1.7 2.9625 2 1.95 2.4875 1.0875C5.375 4.65 9.725 6.975 14.6 7.2375C14.4875 6.825 14.45 6.3375 14.45 5.8875C14.45 2.625 17.075 0 20.3375 0C22.025 0 23.5625 0.7125 24.6125 1.8375C25.9625 1.575 27.2 1.0875 28.3625 0.4125C27.9125 1.8 26.975 2.925 25.775 3.675C26.975 3.525 28.1 3.225 29.15 2.7375C28.4 3.9375 27.425 4.9875 26.2625 5.8125Z" fill="white"/>
</svg>
