<svg width="42" height="34" viewBox="0 0 42 34" fill="none" xmlns="http://www.w3.org/2000/svg">
<path d="M37.767 8.48631C37.767 8.86956 37.767 9.25282 37.767 9.58132C37.767 20.9147 29.0812 34 13.2487 34C8.35602 34 3.84817 32.5765 0 30.1675C0.659686 30.2222 1.37435 30.277 2.03403 30.277C6.04712 30.277 9.78534 28.9082 12.7539 26.6087C8.96073 26.5539 5.77225 24.0354 4.72775 20.6409C5.27749 20.7504 5.77225 20.8052 6.37696 20.8052C7.1466 20.8052 7.91623 20.6957 8.63089 20.4766C4.67277 19.7101 1.70419 16.2609 1.70419 12.0998C1.70419 12.0451 1.70419 12.0451 1.70419 11.9903C2.85864 12.6473 4.17801 13.0306 5.60733 13.0853C3.29843 11.5523 1.75916 8.92432 1.75916 5.91304C1.75916 4.32528 2.19895 2.84702 2.91361 1.58776C7.1466 6.78905 13.5236 10.1836 20.6702 10.5668C20.5052 9.96457 20.4503 9.25282 20.4503 8.59581C20.4503 3.83253 24.2984 0 29.0811 0C31.555 0 33.8089 1.04026 35.3482 2.68277C37.3272 2.29952 39.1414 1.58776 40.8455 0.602254C40.1859 2.62802 38.8115 4.27053 37.0524 5.36554C38.8115 5.14654 40.4607 4.70853 42 3.99678C40.9005 5.74879 39.4712 7.2818 37.767 8.48631Z" fill="#1DA1F2"/>
</svg>
