<svg width="49" height="48" viewBox="0 0 49 48" fill="none" xmlns="http://www.w3.org/2000/svg">
<g clip-path="url(#clip0_3_2520)">
<rect x="0.5" width="48" height="48" rx="24" fill="#FF0000"/>
<path fill-rule="evenodd" clip-rule="evenodd" d="M36.2379 14.1401C37.5229 14.486 38.5361 15.4992 38.8821 16.7842C39.5246 19.1318 39.4999 24.0247 39.4999 24.0247C39.4999 24.0247 39.4999 28.8929 38.8821 31.2405C38.5361 32.5255 37.5229 33.5387 36.2379 33.8846C33.8903 34.5024 24.4999 34.5024 24.4999 34.5024C24.4999 34.5024 15.1342 34.5024 12.7619 33.8599C11.4769 33.5139 10.4638 32.5008 10.1178 31.2158C9.5 28.8929 9.5 24 9.5 24C9.5 24 9.5 19.1318 10.1178 16.7842C10.4638 15.4992 11.5016 14.4613 12.7619 14.1153C15.1095 13.4976 24.4999 13.4976 24.4999 13.4976C24.4999 13.4976 33.8903 13.4976 36.2379 14.1401ZM29.3187 24L21.5098 28.4975V19.5025L29.3187 24Z" fill="white"/>
</g>
<defs>
<clipPath id="clip0_3_2520">
<rect width="48" height="48" fill="white" transform="translate(0.5)"/>
</clipPath>
</defs>
</svg>
